# Blender v2.82 (sub 7) OBJ File: ''
# www.blender.org
mtllib model.mtl
o Cube
v 2.000000 0.100000 -1.750000
v 2.000000 -0.100000 -1.750000
v 2.000000 0.100000 1.750000
v 2.000000 -0.100000 1.750000
v -2.000000 0.100000 -1.750000
v -2.000000 -0.100000 -1.750000
v -2.000000 0.100000 1.750000
v -2.000000 -0.100000 1.750000
vt 0.000146 0.000146
vt 0.533168 0.000146
vt 0.533168 0.466540
vt 0.000146 0.466540
vt 0.000146 0.987111
vt 0.000146 0.960460
vt 0.533168 0.960461
vt 0.533168 0.987111
vt 0.533459 0.027089
vt 0.560111 0.027089
vt 0.560111 0.493484
vt 0.533460 0.493484
vt 0.000146 0.466832
vt 0.533168 0.466832
vt 0.533168 0.933226
vt 0.000146 0.933225
vt 0.533459 0.026797
vt 0.533459 0.000146
vt 0.999854 0.000146
vt 0.999854 0.026797
vt 0.533168 0.933517
vt 0.533168 0.960169
vt 0.000146 0.960168
vt 0.000146 0.933517
vn 0.0000 1.0000 0.0000
vn 0.0000 0.0000 1.0000
vn -1.0000 0.0000 0.0000
vn 0.0000 -1.0000 0.0000
vn 1.0000 0.0000 0.0000
vn 0.0000 0.0000 -1.0000
usemtl Material
s off
f 1/1/1 5/2/1 7/3/1 3/4/1
f 4/5/2 3/6/2 7/7/2 8/8/2
f 8/9/3 7/10/3 5/11/3 6/12/3
f 6/13/4 2/14/4 4/15/4 8/16/4
f 2/17/5 1/18/5 3/19/5 4/20/5
f 6/21/6 5/22/6 1/23/6 2/24/6
